<svg width="1024" height="1024" viewBox="0 0 1024 1024" fill="none" xmlns="http://www.w3.org/2000/svg">
<g filter="url(#filter0_d)">
<rect x="100" y="100" width="824" height="824" rx="184" fill="white"/>
<rect x="100" y="100" width="824" height="824" rx="184" fill="url(#paint0_linear)"/>
</g>
<g style="mix-blend-mode:hard-light" opacity="0.28">
<path fill-rule="evenodd" clip-rule="evenodd" d="M867.287 519.938C867.287 535.556 759.152 691 553.287 691C362.286 691 239.287 536.3 239.287 519.938C239.287 503.575 352.624 334 553.287 334C763.611 334 867.287 504.319 867.287 519.938ZM815.263 518.388C815.263 528.01 716.261 653.812 553.368 653.812C402.236 653.812 293.54 528.355 293.54 518.388C293.54 510.621 354.904 425.572 457.129 388.403C435.402 411.773 422.113 443.105 422.113 477.544C422.113 549.838 480.675 608.444 552.915 608.444C625.156 608.444 683.718 549.838 683.718 477.544C683.718 442.056 669.607 409.867 646.693 386.289C754.97 422.289 815.263 510.742 815.263 518.388ZM490.446 421.726C504.049 407.46 524.254 427.594 513.834 437.635C513.682 437.782 513.532 437.933 513.386 438.088C503.313 448.194 497.085 462.141 497.085 477.544C497.085 493.173 503.498 507.303 513.834 517.444L513.834 517.452C525.399 530.223 501.073 545.787 489.109 531.819C489.02 531.715 488.933 531.614 488.847 531.515C488.825 531.489 488.802 531.463 488.779 531.437C476.541 516.867 469.17 498.067 469.17 477.544C469.17 456.834 476.676 437.879 489.114 423.254L489.109 423.268C489.133 423.238 489.157 423.208 489.181 423.178L489.212 423.139C489.618 422.663 490.029 422.192 490.446 421.726Z" fill="#A9085E"/>
</g>
<g style="mix-blend-mode:hard-light" opacity="0.28">
<path fill-rule="evenodd" clip-rule="evenodd" d="M784.648 519.938C784.648 535.556 676.513 691 470.648 691C279.647 691 156.648 536.3 156.648 519.938C156.648 503.575 269.985 334 470.648 334C680.972 334 784.648 504.319 784.648 519.938ZM732.625 518.388C732.625 528.01 633.622 653.812 470.729 653.812C319.597 653.812 210.901 528.355 210.901 518.388C210.901 510.621 272.265 425.572 374.49 388.403C352.763 411.773 339.474 443.105 339.474 477.544C339.474 549.838 398.036 608.444 470.277 608.444C542.517 608.444 601.079 549.838 601.079 477.544C601.079 442.056 586.968 409.867 564.054 386.289C672.332 422.289 732.625 510.742 732.625 518.388ZM407.807 421.726C421.41 407.46 441.616 427.594 431.195 437.635C431.043 437.782 430.894 437.933 430.748 438.087C420.674 448.194 414.446 462.141 414.446 477.544C414.446 493.173 420.859 507.304 431.195 517.444L431.195 517.452C442.76 530.223 418.434 545.787 406.471 531.819C406.429 531.771 406.388 531.724 406.348 531.677C406.277 531.595 406.208 531.515 406.14 531.437C393.903 516.867 386.531 498.067 386.531 477.544C386.531 456.834 394.037 437.879 406.476 423.254L406.471 423.268C406.505 423.225 406.539 423.182 406.573 423.139C406.979 422.663 407.391 422.192 407.807 421.726Z" fill="#0E6069"/>
</g>
<path fill-rule="evenodd" clip-rule="evenodd" d="M825.348 519.938C825.348 535.556 717.213 691 511.348 691C320.347 691 197.348 536.3 197.348 519.938C197.348 503.575 310.685 334 511.348 334C721.672 334 825.348 504.319 825.348 519.938ZM773.324 518.388C773.324 528.01 674.322 653.812 511.429 653.812C360.297 653.812 251.601 528.355 251.601 518.388C251.601 510.621 312.965 425.572 415.189 388.403C393.463 411.773 380.174 443.105 380.174 477.544C380.174 549.838 438.736 608.444 510.976 608.444C583.216 608.444 641.779 549.838 641.779 477.544C641.779 442.056 627.667 409.867 604.754 386.289C713.031 422.289 773.324 510.742 773.324 518.388ZM448.507 421.726C462.11 407.461 482.315 427.594 471.895 437.635C471.743 437.782 471.594 437.933 471.448 438.087C461.374 448.194 455.146 462.141 455.146 477.544C455.146 493.173 461.559 507.304 471.894 517.444L471.895 517.452C483.46 530.223 459.134 545.787 447.17 531.819C447.105 531.744 447.042 531.67 446.979 531.597C446.932 531.543 446.886 531.49 446.841 531.438C434.603 516.868 427.231 498.067 427.231 477.544C427.231 456.834 434.737 437.879 447.175 423.254L447.17 423.268C447.204 423.225 447.238 423.182 447.273 423.139C447.679 422.664 448.09 422.192 448.507 421.726Z" fill="#303030"/>
<defs>
<filter id="filter0_d" x="78" y="89" width="868" height="868" filterUnits="userSpaceOnUse" color-interpolation-filters="sRGB">
<feFlood flood-opacity="0" result="BackgroundImageFix"/>
<feColorMatrix in="SourceAlpha" type="matrix" values="0 0 0 0 0 0 0 0 0 0 0 0 0 0 0 0 0 0 127 0"/>
<feOffset dy="11"/>
<feGaussianBlur stdDeviation="11"/>
<feColorMatrix type="matrix" values="0 0 0 0 0 0 0 0 0 0 0 0 0 0 0 0 0 0 0.28 0"/>
<feBlend mode="normal" in2="BackgroundImageFix" result="effect1_dropShadow"/>
<feBlend mode="normal" in="SourceGraphic" in2="effect1_dropShadow" result="shape"/>
</filter>
<linearGradient id="paint0_linear" x1="512" y1="100" x2="512" y2="924" gradientUnits="userSpaceOnUse">
<stop offset="0.135417" stop-color="#FFFDFC"/>
<stop offset="1" stop-color="#F8F4F2"/>
</linearGradient>
</defs>
</svg>
