<svg width="1024" height="1024" viewBox="0 0 1024 1024" fill="none" xmlns="http://www.w3.org/2000/svg">
<g filter="url(#filter0_d)">
<rect x="100" y="100" width="824" height="824" rx="184" fill="white"/>
<rect x="100" y="100" width="824" height="824" rx="184" fill="url(#paint0_linear)"/>
</g>
<g style="mix-blend-mode:hard-light" opacity="0.28">
<path fill-rule="evenodd" clip-rule="evenodd" d="M867.287 511.938C867.287 527.556 759.152 683 553.287 683C362.286 683 239.287 528.3 239.287 511.938C239.287 495.575 352.624 326 553.287 326C763.611 326 867.287 496.319 867.287 511.938ZM815.263 510.388C815.263 520.01 716.261 645.812 553.368 645.812C402.236 645.812 293.54 520.355 293.54 510.388C293.54 502.621 354.904 417.572 457.129 380.403C435.402 403.773 422.113 435.105 422.113 469.544C422.113 541.838 480.675 600.444 552.915 600.444C625.156 600.444 683.718 541.838 683.718 469.544C683.718 434.056 669.607 401.867 646.693 378.289C754.971 414.289 815.263 502.742 815.263 510.388ZM490.446 413.726C504.049 399.46 524.254 419.594 513.834 429.635C513.682 429.782 513.532 429.933 513.386 430.088C503.313 440.194 497.085 454.141 497.085 469.544C497.085 485.173 503.498 499.303 513.834 509.444L513.834 509.452C525.399 522.223 501.073 537.787 489.109 523.819C489.02 523.715 488.933 523.614 488.847 523.515C488.825 523.489 488.802 523.463 488.779 523.437C476.542 508.867 469.17 490.067 469.17 469.544C469.17 448.834 476.676 429.879 489.114 415.254L489.109 415.268C489.133 415.238 489.157 415.208 489.181 415.178L489.212 415.139C489.618 414.663 490.029 414.192 490.446 413.726Z" fill="#A9085E"/>
</g>
<g style="mix-blend-mode:hard-light" opacity="0.28">
<path fill-rule="evenodd" clip-rule="evenodd" d="M784.648 511.938C784.648 527.556 676.513 683 470.648 683C279.647 683 156.648 528.3 156.648 511.938C156.648 495.575 269.985 326 470.648 326C680.972 326 784.648 496.319 784.648 511.938ZM732.625 510.388C732.625 520.01 633.622 645.812 470.729 645.812C319.597 645.812 210.901 520.355 210.901 510.388C210.901 502.621 272.265 417.572 374.49 380.403C352.763 403.773 339.474 435.105 339.474 469.544C339.474 541.838 398.036 600.444 470.277 600.444C542.517 600.444 601.079 541.838 601.079 469.544C601.079 434.056 586.968 401.867 564.054 378.289C672.332 414.289 732.625 502.742 732.625 510.388ZM407.807 413.726C421.41 399.46 441.615 419.594 431.195 429.635C431.043 429.782 430.894 429.933 430.748 430.087C420.674 440.194 414.446 454.141 414.446 469.544C414.446 485.173 420.859 499.304 431.195 509.444L431.195 509.452C442.76 522.223 418.434 537.787 406.471 523.819C406.429 523.771 406.388 523.724 406.348 523.677C406.277 523.595 406.208 523.515 406.14 523.437C393.903 508.867 386.531 490.067 386.531 469.544C386.531 448.834 394.037 429.879 406.475 415.254L406.471 415.268C406.505 415.225 406.539 415.182 406.573 415.139C406.979 414.663 407.391 414.192 407.807 413.726Z" fill="#0E6069"/>
</g>
<path fill-rule="evenodd" clip-rule="evenodd" d="M825.348 511.938C825.348 527.556 717.213 683 511.348 683C320.347 683 197.348 528.3 197.348 511.938C197.348 495.575 310.685 326 511.348 326C721.672 326 825.348 496.319 825.348 511.938ZM773.324 510.388C773.324 520.01 674.322 645.812 511.429 645.812C360.297 645.812 251.601 520.355 251.601 510.388C251.601 502.621 312.965 417.572 415.189 380.403C393.463 403.773 380.174 435.105 380.174 469.544C380.174 541.838 438.736 600.444 510.976 600.444C583.216 600.444 641.779 541.838 641.779 469.544C641.779 434.056 627.667 401.867 604.754 378.289C713.031 414.289 773.324 502.742 773.324 510.388ZM448.507 413.726C462.11 399.461 482.315 419.594 471.895 429.635C471.743 429.782 471.594 429.933 471.448 430.087C461.374 440.194 455.146 454.141 455.146 469.544C455.146 485.173 461.559 499.304 471.894 509.444L471.895 509.452C483.46 522.223 459.134 537.787 447.17 523.819C447.105 523.744 447.042 523.67 446.979 523.597C446.932 523.543 446.886 523.49 446.841 523.438C434.603 508.868 427.231 490.067 427.231 469.544C427.231 448.834 434.737 429.879 447.175 415.254L447.17 415.268C447.204 415.225 447.238 415.182 447.273 415.139C447.679 414.664 448.09 414.192 448.507 413.726Z" fill="#303030"/>
<defs>
<filter id="filter0_d" x="78" y="89" width="868" height="868" filterUnits="userSpaceOnUse" color-interpolation-filters="sRGB">
<feFlood flood-opacity="0" result="BackgroundImageFix"/>
<feColorMatrix in="SourceAlpha" type="matrix" values="0 0 0 0 0 0 0 0 0 0 0 0 0 0 0 0 0 0 127 0"/>
<feOffset dy="11"/>
<feGaussianBlur stdDeviation="11"/>
<feColorMatrix type="matrix" values="0 0 0 0 0 0 0 0 0 0 0 0 0 0 0 0 0 0 0.28 0"/>
<feBlend mode="normal" in2="BackgroundImageFix" result="effect1_dropShadow"/>
<feBlend mode="normal" in="SourceGraphic" in2="effect1_dropShadow" result="shape"/>
</filter>
<linearGradient id="paint0_linear" x1="512" y1="100" x2="512" y2="924" gradientUnits="userSpaceOnUse">
<stop offset="0.135417" stop-color="#FFFDFC"/>
<stop offset="1" stop-color="#F8F4F2"/>
</linearGradient>
</defs>
</svg>
